<mxfile host="app.diagrams.net" modified="2024-03-13T09:20:12.378Z" agent="Mozilla/5.0 (Macintosh; Intel Mac OS X 10_15_7) AppleWebKit/537.36 (KHTML, like Gecko) Chrome/122.0.0.0 Safari/537.36" etag="-Y1RoYk-EYgDDVYStRFi" version="24.0.5" type="device">
  <diagram name="Trang-1" id="XIa-D57WSn9igV-h7ixz">
    <mxGraphModel dx="1434" dy="786" grid="0" gridSize="10" guides="1" tooltips="1" connect="1" arrows="1" fold="1" page="0" pageScale="1" pageWidth="850" pageHeight="1100" math="0" shadow="0">
      <root>
        <mxCell id="0" />
        <mxCell id="1" parent="0" />
      </root>
    </mxGraphModel>
  </diagram>
</mxfile>
